<svg width="32" height="32" viewBox="0 0 32 32" fill="none" xmlns="http://www.w3.org/2000/svg">
<path d="M15.9923 13.6863C13.4704 13.6863 11.4253 15.7516 11.4253 18.2981C11.4253 20.8447 13.4704 22.9099 15.9923 22.9099C18.5142 22.9099 20.5593 20.8447 20.5593 18.2981C20.5593 15.7516 18.5142 13.6863 15.9923 13.6863ZM15.9923 25.2236C12.2095 25.2236 9.13407 22.118 9.13407 18.2981C9.13407 14.4783 12.2095 11.3727 15.9923 11.3727C19.7751 11.3727 22.8506 14.4783 22.8506 18.2981C22.8506 22.118 19.7751 25.2236 15.9923 25.2236ZM3.42912 7.92547C2.79865 7.92547 2.29121 8.43789 2.29121 9.07453V27.5373C2.29121 28.1739 2.79865 28.6863 3.42912 28.6863H28.5555C29.186 28.6863 29.6934 28.1739 29.6934 27.5373V9.07453C29.6934 8.43789 29.186 7.92547 28.5555 7.92547H23.5425C22.666 7.92547 21.8818 7.4441 21.4974 6.65217L19.8366 3.31366H12.1326L10.4719 6.65217C10.0875 7.4441 9.30322 7.92547 8.42672 7.92547H3.42912ZM23.5579 5.6118H28.5709C30.4623 5.6118 32 7.1646 32 9.07453V27.5373C32 29.4472 30.4623 31 28.5709 31H3.42912C1.53772 30.9845 0 29.4317 0 27.5373V9.07453C0 7.1646 1.53772 5.6118 3.42912 5.6118H8.4421L10.0875 2.27329C10.4719 1.48137 11.2561 1 12.1326 1H19.852C20.7285 1 21.5127 1.48137 21.8972 2.27329L23.5579 5.6118Z" fill="white"/>
</svg>
