<svg width="130" height="130" viewBox="0 0 130 130" fill="none" xmlns="http://www.w3.org/2000/svg">
<path d="M130 0H0V130H130V0Z" fill="#080808"/>
<path d="M56.7364 91.418C61.5589 91.418 65.4727 87.5041 65.4727 82.6817V73.9453H56.7364C51.9139 73.9453 48 77.8592 48 82.6817C48 87.5041 51.9139 91.418 56.7364 91.418Z" fill="#0ACF83"/>
<path d="M48 65.2093C48 60.3868 51.9139 56.4729 56.7364 56.4729H65.4727V73.9456H56.7364C51.9139 73.9456 48 70.0317 48 65.2093Z" fill="#A259FF"/>
<path d="M48 47.7366C48 42.9141 51.9139 39.0003 56.7364 39.0003H65.4727V56.473H56.7364C51.9139 56.473 48 52.5591 48 47.7366Z" fill="#F24E1E"/>
<path d="M65.4736 39H74.2099C79.0324 39 82.9463 42.9139 82.9463 47.7364C82.9463 52.5588 79.0324 56.4727 74.2099 56.4727H65.4736V39Z" fill="#FF7262"/>
<path d="M82.9463 65.2093C82.9463 70.0317 79.0324 73.9456 74.2099 73.9456C69.3875 73.9456 65.4736 70.0317 65.4736 65.2093C65.4736 60.3868 69.3875 56.4729 74.2099 56.4729C79.0324 56.4729 82.9463 60.3868 82.9463 65.2093Z" fill="#1ABCFE"/>
</svg>
