<?xml version="1.0" standalone="no"?>
<!DOCTYPE svg PUBLIC "-//W3C//DTD SVG 1.1//EN" "http://www.w3.org/Graphics/SVG/1.1/DTD/svg11.dtd">
<svg xmlns="http://www.w3.org/2000/svg">
<metadata>Copyright (C) 2021 by original authors @ fontello.com</metadata>
<defs>
<font id="iconsphotographerxtemplate" horiz-adv-x="1000" >
<font-face font-family="iconsphotographerxtemplate" font-weight="400" font-stretch="normal" units-per-em="1000" ascent="850" descent="-150" />
<missing-glyph horiz-adv-x="1000" />
<glyph glyph-name="badge-icon-date-photographer-x-template" unicode="&#xe800;" d="M780 765h-560v85h-64v-85h-46c-61 0-110-49-110-109v-697c0-60 49-109 110-109h780c61 0 110 49 110 109v697c0 60-49 109-110 109h-46v85h-64v-85z m-560-147v84h560v-84h64v84h46c25 0 46-20 46-46v-123h-872v123c0 26 21 46 46 46h46v-84h64z m-156-148h872v-511c0-25-21-46-46-46h-780c-25 0-46 21-46 46v511z" horiz-adv-x="1000" />

<glyph glyph-name="badge-icon-iso-photographer-x-template" unicode="&#xe801;" d="M194 196v294h44v-294h-44z m167 79c4-28 30-45 67-45 36 0 61 18 61 44 0 23-16 36-53 45l-37 10c-51 12-74 38-74 81 0 52 41 87 103 87 57 0 99-35 101-84h-42c-4 27-27 44-60 44-35 0-58-18-58-44 0-21 15-33 52-42l31-8c58-14 82-39 82-83 0-56-42-91-109-91-62 0-104 34-108 86h44v0z m487 68c0-94-49-154-131-154-82 0-131 59-131 154 0 95 50 154 131 154 81 0 131-59 131-154z m-218 0c0-68 33-111 87-111 54 0 87 43 87 111 0 68-33 111-87 111-53 0-87-43-87-111z m-630 320c0 34 27 62 60 62h880c33 0 60-28 60-62v-625c0-35-27-63-60-63h-880c-33 0-60 28-60 63v625z m60 20c-11 0-20-9-20-20v-625c0-12 9-21 20-21h880c11 0 20 9 20 21v625c0 11-9 20-20 20h-880z" horiz-adv-x="1000" />

<glyph glyph-name="badge-icon-lens-photographer-x-template" unicode="&#xe802;" d="M431 313v-82h157v82h-157z m0 0v-82h157v82h-157z m0 0v-82h157v82h-157z m338 487c-69 31-163 50-263 50-93 0-187-19-262-50-69-31-119-75-119-137v-394c0-31 13-56 38-81 12-13 25-25 43-32v-162c0-25 13-50 32-69 12-13 37-25 62-38 56-25 125-37 206-37 82 0 150 12 207 37 25 13 50 25 68 44 19 19 32 38 32 69v163c18 12 31 18 43 31 19 25 38 50 38 81v388c-6 62-56 106-125 137z m-13-806c0-7 0-19-12-25-13-13-25-19-50-32-44-18-113-31-181-31-75 0-138 13-182 31-25 13-37 19-50 32-12 12-12 18-12 25v131c69-25 156-44 244-44 93 0 181 19 250 44v-131z m75 275c0-13-6-25-18-44-13-19-38-31-69-44-63-25-144-43-238-43-93 0-181 18-237 43-31 13-50 32-69 44-12 19-19 31-19 44v294c19-13 38-25 63-38 69-31 162-44 262-44h7c93 0 187 19 256 50 25 13 44 25 62 38v-300z m-493 319c0 0 0 6 6 12 6 0 19 6 37 13 32 12 82 18 125 18 50 0 94-6 132-18 18-7 25-13 31-19 6-6 6-6 6-13 0 0 0-6-6-12-6-6-19-13-31-19-32-6-82-12-132-12h0c-50 0-93 6-125 18-18 7-31 13-37 19-6 6-6 13-6 13z m406-7c-6 0-13-6-13-6 0 6 0 6 0 13 0 18-12 37-25 50-12 12-31 25-50 31-43 12-93 25-150 25-56 0-106-6-150-25-18-6-37-19-50-31-12-13-25-32-25-50 0-7 0-7 0-13-6 0-12 6-12 6-63 32-88 63-88 88 0 25 25 56 88 87 62 25 150 44 237 44 94 0 175-19 238-44 62-31 87-62 87-87 0-25-18-63-87-88z m-313-350h157v82h-157v-82z m0 82v-82h157v82h-157z" horiz-adv-x="1000" />

<glyph glyph-name="badge-icon-location-photographer-x-template" unicode="&#xe803;" d="M500-150l-19 12c-18 13-400 288-400 582 0 106 44 212 125 287 75 75 182 119 294 119s219-44 294-119c81-75 125-175 125-287 0-325-388-575-400-588l-19-6z m0 938c-94 0-181-38-250-100-69-69-106-150-106-244 0-231 281-463 356-519 75 50 356 269 356 519 0 87-37 175-106 237-62 69-156 107-250 107z m56-282c-31 32-81 32-112 0-13-18-25-37-25-62s6-44 25-56c12-13 37-25 56-25s44 6 56 25c13 12 25 37 25 56s-6 44-25 62z" horiz-adv-x="1000" />

<glyph glyph-name="badge-icon-shutter-speed-photographer-x-template" unicode="&#xe804;" d="M361 850c-19 0-35-16-35-35 0-19 16-35 35-35h279c20 0 35 16 35 35 0 19-15 35-35 35h-279z m175-407c0 19-16 35-35 35-19 0-35-16-35-35v-186c0-19 16-35 35-35 19 0 35 16 35 35v186z m-323 102c76 76 180 119 288 119 108 0 211-43 288-119 76-77 119-180 119-288 0-108-43-211-119-288-77-76-180-119-288-119-108 0-212 43-288 119-76 77-119 180-119 288 0 108 43 211 119 288z m288 49c-90 0-175-35-239-99-63-63-98-149-98-238 0-89 35-175 98-238 64-64 149-99 239-99 89 0 175 35 238 99 63 63 99 149 99 238 0 89-36 175-99 238-63 64-149 99-238 99z" horiz-adv-x="1000" />

<glyph glyph-name="dribbble" unicode="&#xe805;" d="M683 292c157 25 294-16 311-21-22-140-102-260-214-335-5 30-32 177-97 356z m-94-23c70-183 100-336 107-380-60-25-126-40-195-39-116 0-223 39-307 105 9 19 110 214 392 313 1 0 2 0 3 1z m-53 77c-258-84-395-311-407-331-80 89-128 207-129 335 0 3 0 5 0 8 0 2 1 5 1 7 21 0 264-3 514 71 14-28 28-56 41-84-2-1-3-1-4-1-5-2-11-3-16-5z m-62 167c-235-62-441-61-463-61 33 155 137 284 277 350 1 0 1-1 2-2 17-24 104-144 184-287z m96 31c-82 150-173 274-187 292 38 9 77 14 118 14 127 0 243-48 331-126-9-13-84-114-262-180z m39-75c184 76 268 183 279 197 70-85 112-193 113-311 0 0-1 0-1 0-24 5-185 36-347 16-4 8-7 17-11 26-11 24-22 48-33 72z" horiz-adv-x="1000" />

<glyph glyph-name="dropdown-arrow-photographer-x-template" unicode="&#xe806;" d="M336 440l158-158 157 158c14 14 37 14 51 0 14-15 14-37 0-51l-174-175c-5-4-10-8-16-10-6-3-12-4-18-4-6 0-13 1-19 4-5 2-11 6-15 10l-174 175c-14 14-14 36 0 51 14 14 36 14 50 0z" horiz-adv-x="1000" />

<glyph glyph-name="facebook" unicode="&#xe807;" d="M575-150v456h147l22 178h-169v114c0 51 13 86 84 86l91 0v159c-16 2-69 7-132 7-131 0-220-83-220-235v-131h-148v-178h148v-456l177 0z" horiz-adv-x="1000" />

<glyph glyph-name="faq-icon-photographer-x-template" unicode="&#xe808;" d="M923 850l77-77-423-423 423-423-77-77-423 423-423-423-77 77 423 423-423 423 77 77 423-423 423 423z" horiz-adv-x="1000" />

<glyph glyph-name="flickr" unicode="&#xe809;" d="M536 368c0-128 104-232 232-232 128 0 232 104 232 232 0 128-104 232-232 232-128 0-232-104-232-232z m-536 0c0-128 104-232 232-232 128 0 232 104 232 232 0 128-104 232-232 232-128 0-232-104-232-232z" horiz-adv-x="1000" />

<glyph glyph-name="instagram" unicode="&#xe80a;" d="M950 719c-19 31-50 62-81 81-69 50-169 50-369 50s-300 0-369-50c-31-19-62-50-81-81-50-69-50-169-50-369s0-300 50-369c19-31 50-62 81-81 69-50 169-50 369-50s300 0 369 50c31 19 62 50 81 81 50 69 50 169 50 369s0 300-50 369z m-450-625c-144 0-256 119-256 256s112 256 256 256 256-118 256-256-112-256-256-256z m269 469c-31 0-63 25-63 62 0 31 25 63 63 63 31 0 62-25 62-63 0-37-31-62-62-62z m-100-213c0-94-75-169-169-169s-169 75-169 169 75 169 169 169 169-75 169-169z" horiz-adv-x="1000" />

<glyph glyph-name="px" unicode="&#xe80b;" d="M222 658c-61-7-118-36-159-82-41-46-63-106-63-167v-411c0-23 19-28 46-28 28 0 46 5 46 28v411c0 38 13 75 37 104 25 29 60 47 97 53 21 2 42 0 62-7 20-6 38-17 54-30 16-14 28-31 37-50 9-19 13-40 13-61-3-32-14-62-32-88-14-20-34-36-57-47-22-10-47-15-72-13-19 0-32 0-37-41 0-28 0-42 23-47 46-4 93 5 134 28 37 19 68 46 91 80 24 34 38 73 43 114 2 32-1 64-11 94-10 30-26 58-46 82-21 24-46 44-75 58-28 14-59 22-91 25-13-4-27-6-40-5z m604-240l166 166c5 5 19 19-9 51-4 5-8 9-14 12-6 4-12 6-18 6-4 0-7-1-10-2-4-2-6-4-9-7l-166-166-166 171c-14 14-28 9-51-10-23-18-23-36-9-50l166-166-167-171c-5-5-8-12-9-19 0-6 2-13 5-18 3-6 8-11 13-14 9-9 21-15 33-19 8 2 16 5 23 10l166 166 166-166c2-3 5-5 8-7 4-2 7-2 11-3 6 1 12 3 18 6 5 4 10 8 14 13 14 18 18 37 5 46l-166 171z" horiz-adv-x="1000" />

<glyph glyph-name="slider-arrow-left-photographer-x-template" unicode="&#xe80c;" d="M735 764l-434-414 434-414c20-20 20-52 0-71-21-20-54-20-75 0l-448 428c-8 8-14 17-18 26-4 10-6 21-6 31 0 11 2 21 6 31 4 9 10 18 18 26l448 428c21 20 54 20 75 0 20-19 20-51 0-71z" horiz-adv-x="1000" />

<glyph glyph-name="slider-arrow-right-photographer-x-template" unicode="&#xe80d;" d="M265 764l434-414-434-414c-20-20-20-52 0-71 21-20 54-20 75 0l448 428c8 8 14 17 18 26 4 10 7 21 7 31 0 11-3 21-7 31-4 9-10 18-18 26l-448 428c-21 20-54 20-75 0-20-19-20-51 0-71z" horiz-adv-x="1000" />

<glyph glyph-name="twitter" unicode="&#xe80e;" d="M998 660c-37-17-76-28-118-33 43 26 75 66 91 114-40-23-84-40-131-49-37 39-90 64-149 64-114 0-205-91-205-204 0-17 2-32 5-47-170 8-322 90-423 213-17-30-27-65-27-103 0-71 36-134 91-170-34 1-65 10-93 25v-2c0-100 71-183 164-201-17-5-35-8-54-8-13 0-25 2-38 4 27-81 102-141 192-142-70-55-159-88-254-88-16 0-33 1-49 3 91-58 199-92 315-92 377 0 583 312 583 582 0 9 0 18 0 27 40 28 75 65 102 106l-2 1z" horiz-adv-x="1000" />

<glyph glyph-name="unsplash" unicode="&#xe80f;" d="M313 569v281h375v-281h-375z m375-156h312v-563h-1000v563h313v-282h375v282z" horiz-adv-x="1000" />

<glyph glyph-name="youtube" unicode="&#xe810;" d="M979 592c-6 20-17 39-32 54-15 16-34 27-55 33-78 20-392 20-392 20 0 0-312 1-391-20-21-6-40-17-55-33-15-15-26-34-32-54-15-80-22-161-22-242 0-81 7-162 22-241 6-21 17-40 32-55 15-15 34-27 55-32 78-21 391-21 391-21 0 0 313 0 392 21 21 5 40 17 55 32 15 15 26 34 32 55 14 79 21 160 21 241 0 81-7 162-21 242z m-579-392v300l261-150-261-150z" horiz-adv-x="1000" />

<glyph glyph-name="badge-icon-apperture-photographer-x-template" unicode="&#xe811;" d="M262 838c17 16 43 16 59 0l292-292 12-12v274c0 23 19 42 42 42 23 0 41-19 41-42v-375-66l221 221c16 16 43 16 59 0 16-16 16-43 0-59l-292-292-12-12h274c23 0 42-19 42-42 0-23-19-41-42-41h-375-66l221-221c16-16 16-43 0-59-16-16-43-16-59 0l-292 292-12 12v-274c0-23-19-42-42-42-23 0-41 19-41 42v441l-221-221c-16-16-42-16-59 0-16 17-16 43 0 59l292 292 12 12h-274c-23 0-42 19-42 42 0 23 19 41 42 41h441l-221 221c-16 16-16 43 0 59z m334-392c-19 18-45 29-72 29h-48c-27 0-53-11-71-29-19-19-30-45-30-72v-48c0-27 11-53 30-71 18-19 44-30 71-30h48c27 0 53 11 72 30 18 18 29 44 29 71v48c0 27-11 53-29 72z" horiz-adv-x="1000" />

<glyph glyph-name="badge-icon-author-photographer-x-template" unicode="&#xe812;" d="M500 850c-275 0-500-225-500-500s225-500 500-500 500 225 500 500-225 500-500 500z m0-944c-244 0-444 200-444 444s200 444 444 444 444-200 444-444-200-444-444-444z m188 394c-25 25-50 44-82 56 7 7 13 7 13 13 31 31 50 75 50 119 0 43-19 87-50 118s-75 57-119 57-87-19-119-50-50-75-50-119c0-44 19-88 50-119 7-6 7-12 13-12-31-19-56-38-81-63-50-50-75-119-75-187v-50c0-13 12-25 25-25s31 12 31 31v50c0 56 19 106 62 144 38 37 94 62 144 62s106-25 144-62c37-38 62-94 62-144v-50c0-19 13-31 32-31s31 12 31 31v50c-6 69-31 131-81 181z m-188 81c-31 0-56 13-81 32-19 18-31 50-31 81 0 31 12 56 31 81 25 19 50 25 81 25s56-12 81-31c19-19 32-50 32-81 0-32-13-57-32-82-25-12-50-25-81-25z" horiz-adv-x="1000" />

<glyph glyph-name="badge-icon-camera-photographer-x-template" unicode="&#xe813;" d="M346 437c41 41 96 64 154 64 58 0 113-23 154-64 41-41 64-97 64-155 0-59-23-115-64-156-41-41-96-64-154-64-58 0-113 23-154 64-41 41-64 97-64 156 0 58 23 114 64 155z m154-317c42 0 82 17 112 47 30 30 47 72 47 115 0 43-17 84-47 114-30 30-70 47-112 47-42 0-82-17-112-47-30-30-47-71-47-114 0-43 17-85 47-115 30-30 70-47 112-47z m-176 661c8 4 16 7 25 7h302c9 0 18-3 26-7 8-4 15-10 20-17l104-141c6-8 14-15 23-19 9-5 19-7 29-7h24c32 0 64-13 87-37 23-23 36-55 36-88v-477c0-32-13-64-36-88-23-23-55-36-87-36h-753c-33 0-65 13-88 36-23 24-36 56-36 88v477c0 33 13 65 36 88 23 24 55 37 88 37h23c10 0 20 2 29 7 9 4 17 11 23 19l104 141c6 7 12 13 21 17z m26-52l-104-141c-11-15-26-28-43-36-18-9-37-14-56-14h-23c-17 0-34-6-46-19-12-12-19-29-19-47v-477c0-17 7-34 19-47 12-12 29-19 46-19h753c17 0 33 7 45 19 12 13 19 30 19 47v477c0 18-7 35-19 47-12 13-28 19-45 19h-24c-19 0-38 5-55 14-18 8-33 21-44 36l-104 141h-300z" horiz-adv-x="1000" />

<glyph glyph-name="link-arrow" unicode="&#xe814;" d="M875 725v-575h-112v381l-557-556-81 81 556 557h-381v112h575z" horiz-adv-x="1000" />
</font>
</defs>
</svg>
