<svg width="209" height="27" viewBox="0 0 209 27" fill="none" xmlns="http://www.w3.org/2000/svg">
<path d="M13.9701 10.6967C11.8423 10.6967 10.1166 12.4131 10.1166 14.5295C10.1166 16.6459 11.8423 18.3623 13.9701 18.3623C16.0979 18.3623 17.8235 16.6459 17.8235 14.5295C17.8235 12.4131 16.0979 10.6967 13.9701 10.6967ZM13.9701 20.2851C10.7783 20.2851 8.18343 17.7041 8.18343 14.5295C8.18343 11.3548 10.7783 8.77385 13.9701 8.77385C17.1618 8.77385 19.7567 11.3548 19.7567 14.5295C19.7567 17.7041 17.1618 20.2851 13.9701 20.2851ZM3.36988 5.90894C2.83793 5.90894 2.40977 6.33481 2.40977 6.86391V22.2079C2.40977 22.737 2.83793 23.1629 3.36988 23.1629H24.5703C25.1022 23.1629 25.5304 22.737 25.5304 22.2079V6.86391C25.5304 6.33481 25.1022 5.90894 24.5703 5.90894H20.3406C19.601 5.90894 18.9393 5.50889 18.615 4.85074L17.2137 2.07616H10.7135L9.31222 4.85074C8.98785 5.50889 8.32615 5.90894 7.58661 5.90894H3.36988ZM20.3535 3.9861H24.5832C26.1791 3.9861 27.4766 5.2766 27.4766 6.86391V22.2079C27.4766 23.7953 26.1791 25.0858 24.5832 25.0858H3.36988C1.77402 25.0728 0.476562 23.7824 0.476562 22.2079V6.86391C0.476562 5.2766 1.77402 3.9861 3.36988 3.9861H7.59958L8.98785 1.21153C9.31222 0.553375 9.97392 0.15332 10.7135 0.15332H17.2267C17.9662 0.15332 18.6279 0.553375 18.9523 1.21153L20.3535 3.9861Z" fill="white"/>
<path d="M51.8967 15.1233C55.1592 15.1233 57.288 12.8557 57.288 9.73203C57.288 6.51579 55.1824 4.36391 51.8967 4.36391H45.3948V21.093H47.6624V15.1233H51.8967ZM51.5034 6.4001C53.6321 6.4001 54.9047 7.6033 54.9047 9.7089C54.9047 11.7682 53.6552 13.0871 51.4108 13.0871H47.6624V6.4001H51.5034ZM61.6611 21.0699V14.915C61.6611 12.9714 62.7949 11.4443 64.9005 11.4443C66.5202 11.4443 67.6077 12.3698 67.6077 14.6605V21.093H69.7827V14.1746C69.7827 11.2823 68.3944 9.45437 65.5021 9.45437C63.7436 9.45437 62.3784 10.2874 61.6611 11.5137V4.06311H59.4861V21.0699H61.6611ZM72.0548 15.4241C72.0548 18.918 74.5538 21.3707 77.9551 21.3707C81.3333 21.3707 83.8323 18.918 83.8323 15.4241C83.8323 11.9302 81.3333 9.47751 77.9551 9.47751C74.5538 9.47751 72.0548 11.9302 72.0548 15.4241ZM74.253 15.4241C74.253 13.064 75.757 11.4211 77.9551 11.4211C80.1301 11.4211 81.6573 13.064 81.6573 15.4241C81.6573 17.7842 80.1301 19.427 77.9551 19.427C75.757 19.427 74.253 17.7842 74.253 15.4241ZM89.3201 21.093V11.6062H91.5414V9.77831H89.3201V6.23813H87.1451V9.77831H84.9238V11.6062H87.1451V21.093H89.3201ZM92.6399 15.4241C92.6399 18.918 95.1389 21.3707 98.5402 21.3707C101.918 21.3707 104.417 18.918 104.417 15.4241C104.417 11.9302 101.918 9.47751 98.5402 9.47751C95.1389 9.47751 92.6399 11.9302 92.6399 15.4241ZM94.8381 15.4241C94.8381 13.064 96.3421 11.4211 98.5402 11.4211C100.715 11.4211 102.242 13.064 102.242 15.4241C102.242 17.7842 100.715 19.427 98.5402 19.427C96.3421 19.427 94.8381 17.7842 94.8381 15.4241ZM106.108 15.1464C106.108 18.3164 108.144 20.7922 111.36 20.7922C113.142 20.7922 114.623 20.0055 115.363 18.6866V20.9542C115.363 23.1061 113.975 24.4944 111.846 24.4944C109.949 24.4944 108.699 23.5226 108.422 21.8566H106.247C106.663 24.7258 108.769 26.4611 111.846 26.4611C115.317 26.4611 117.515 24.1936 117.515 20.6302V9.77831H115.571L115.409 11.6988C114.692 10.2874 113.281 9.45437 111.453 9.45437C108.167 9.45437 106.108 11.9533 106.108 15.1464ZM108.283 15.1002C108.283 13.0177 109.579 11.3517 111.754 11.3517C113.975 11.3517 115.271 12.9251 115.271 15.1002C115.271 17.3214 113.929 18.8949 111.73 18.8949C109.602 18.8949 108.283 17.2289 108.283 15.1002ZM127.133 9.68576C126.693 9.5932 126.369 9.54693 125.976 9.54693C124.425 9.54693 123.292 10.3336 122.829 11.5137L122.69 9.80145H120.654V21.093H122.829V15.1002C122.829 12.9251 124.102 11.6757 126.161 11.6757H127.133V9.68576ZM132.03 21.3707C133.857 21.3707 135.408 20.5608 135.986 19.2651L136.218 21.093H138.069V13.9895C138.069 10.9352 136.171 9.45437 133.372 9.45437C130.456 9.45437 128.512 11.0046 128.512 13.3648H130.41C130.41 11.9996 131.451 11.1898 133.279 11.1898C134.806 11.1898 135.94 11.8608 135.94 13.7581V14.0821L132.377 14.3597C129.716 14.568 128.165 15.8637 128.165 17.9462C128.165 20.0055 129.6 21.3707 132.03 21.3707ZM132.654 19.6816C131.243 19.6816 130.364 19.08 130.364 17.8768C130.364 16.7661 131.15 16.0257 133.071 15.8406L135.963 15.6092V16.2108C135.963 18.3395 134.714 19.6816 132.654 19.6816ZM141.081 26.1603H143.256V19.2419C143.996 20.6302 145.5 21.3938 147.305 21.3938C150.66 21.3938 152.557 18.8023 152.557 15.3547C152.557 11.8839 150.544 9.45437 147.305 9.45437C145.5 9.45437 143.973 10.2642 143.21 11.8145L143.048 9.77831H141.081V26.1603ZM143.279 15.4472C143.279 13.0871 144.621 11.4443 146.842 11.4443C149.064 11.4443 150.382 13.1102 150.382 15.4472C150.382 17.7611 149.064 19.427 146.842 19.427C144.621 19.427 143.279 17.7611 143.279 15.4472ZM157.13 21.0699V14.915C157.13 12.9714 158.264 11.4443 160.369 11.4443C161.989 11.4443 163.076 12.3698 163.076 14.6605V21.093H165.251V14.1746C165.251 11.2823 163.863 9.45437 160.971 9.45437C159.212 9.45437 157.847 10.2874 157.13 11.5137V4.06311H154.955V21.0699H157.13ZM173.146 21.3707C175.946 21.3707 177.843 20.0055 178.399 17.576H176.362C175.992 18.8717 174.882 19.5659 173.192 19.5659C171.041 19.5659 169.791 18.247 169.629 15.8637L178.375 15.8406V15.0307C178.375 11.6757 176.27 9.45437 173.054 9.45437C169.768 9.45437 167.524 11.907 167.524 15.4472C167.524 18.9643 169.814 21.3707 173.146 21.3707ZM173.054 11.2823C174.974 11.2823 176.2 12.5318 176.2 14.406H169.675C169.953 12.4161 171.156 11.2823 173.054 11.2823ZM187.284 9.68576C186.844 9.5932 186.52 9.54693 186.127 9.54693C184.576 9.54693 183.443 10.3336 182.98 11.5137L182.841 9.80145H180.805V21.093H182.98V15.1002C182.98 12.9251 184.252 11.6757 186.312 11.6757H187.284V9.68576ZM200.186 12.74L194.447 21.093H197.108L201.597 14.4754C202.152 15.4472 202.777 16.4653 203.425 17.414L205.993 21.093H208.677L203.009 12.7169L208.608 4.36391H205.993L201.574 11.0278C201.088 10.1022 200.533 9.17671 199.792 8.0892L197.178 4.36391H194.47L200.186 12.74Z" fill="white"/>
</svg>
