<svg width="20" height="20" viewBox="0 0 20 20" fill="none" xmlns="http://www.w3.org/2000/svg">
<path fill-rule="evenodd" clip-rule="evenodd" d="M17.4605 2.53951C15.8344 0.913483 13.6291 0 11.3295 0C9.02997 0 6.82461 0.913483 5.19858 2.53951C3.57256 4.16553 2.65908 6.37089 2.65908 8.67045C2.65908 9.80907 2.88335 10.9365 3.31908 11.9885C3.66614 12.8264 4.14197 13.6033 4.72814 14.2917L0.202995 18.8168C-0.0676652 19.0875 -0.0676652 19.5263 0.202995 19.797C0.473684 20.0677 0.912517 20.0677 1.18321 19.797L5.70832 15.2719C6.39666 15.858 7.17359 16.3338 8.01149 16.6809C9.06344 17.1166 10.1909 17.3409 11.3295 17.3409C12.4681 17.3409 13.5956 17.1166 14.6476 16.6809C15.6995 16.2452 16.6553 15.6065 17.4605 14.8014C18.2656 13.9963 18.9042 13.0404 19.34 11.9885C19.7757 10.9365 20 9.80907 20 8.67045C20 6.37089 19.0865 4.16553 17.4605 2.53951ZM11.3295 1.38622C13.2614 1.38622 15.1142 2.15367 16.4803 3.51972C17.8463 4.88577 18.6138 6.73854 18.6138 8.67045C18.6138 9.62702 18.4253 10.5742 18.0593 11.458C17.6932 12.3418 17.1567 13.1448 16.4803 13.8212C15.8038 14.4976 15.0008 15.0341 14.1171 15.4002C13.2333 15.7663 12.2861 15.9547 11.3295 15.9547C10.3729 15.9547 9.42573 15.7663 8.54198 15.4002C7.65822 15.0341 6.85521 14.4976 6.17879 13.8212C5.50238 13.1448 4.96583 12.3418 4.59979 11.458C4.23372 10.5742 4.04529 9.62702 4.04529 8.67045C4.04529 6.73854 4.81274 4.88577 6.17879 3.51972C7.54484 2.15367 9.39762 1.38622 11.3295 1.38622Z" fill="white"/>
</svg>
